<svg xmlns="http://www.w3.org/2000/svg" width="32" height="32" viewBox="0 0 32 32">
  <rect width="32" height="32" rx="8" fill="#2563EB"/>
  <path d="M8 16C8 11.6 11.6 8 16 8C20.4 8 24 11.6 24 16C24 17.5 23.6 18.9 22.9 20.1L24 24L20.1 22.9C18.9 23.6 17.5 24 16 24C11.6 24 8 20.4 8 16Z" fill="white" opacity="0.9"/>
  <rect x="13" y="14" width="2" height="2" rx="1" fill="#2563EB"/>
  <rect x="17" y="14" width="2" height="2" rx="1" fill="#2563EB"/>
  <path d="M14 19C14.8 19.7 15.6 20 16.5 20C17.4 20 18.2 19.7 19 19" stroke="#2563EB" stroke-width="1.2" stroke-linecap="round" fill="none"/>
</svg>
